STARTFONT 2.1
COMMENT Recovered from ar1.1:MUSC10 1 (Xerox Alto CONVERT font source (AL) recovered from MIT CADR AR1 ARC!!!)
FONT MIT-CADR-MUSC10-AL-AR1
SIZE 17 72 72
FONTBOUNDINGBOX 16 17 0 0
STARTPROPERTIES 2
FONT_ASCENT 17
FONT_DESCENT 0
ENDPROPERTIES
CHARS 128
STARTCHAR C0000
ENCODING -1 0
SWIDTH 0 0
DWIDTH 0 0
BBX 0 17 0 0
BITMAP
00
00
00
00
00
00
00
00
00
00
00
00
00
00
00
00
00
ENDCHAR
STARTCHAR C0001
ENCODING -1 1
SWIDTH 471 0
DWIDTH 8 0
BBX 8 17 0 0
BITMAP
00
06
1C
70
FE
FE
00
FE
FE
00
00
00
00
00
00
00
00
ENDCHAR
STARTCHAR C0002
ENCODING -1 2
SWIDTH 0 0
DWIDTH 0 0
BBX 0 17 0 0
BITMAP
00
00
00
00
00
00
00
00
00
00
00
00
00
00
00
00
00
ENDCHAR
STARTCHAR C0003
ENCODING -1 3
SWIDTH 471 0
DWIDTH 8 0
BBX 8 17 0 0
BITMAP
00
00
38
64
C2
C2
64
38
64
C2
C2
64
38
00
00
00
00
ENDCHAR
STARTCHAR C0004
ENCODING -1 4
SWIDTH 0 0
DWIDTH 0 0
BBX 0 17 0 0
BITMAP
00
00
00
00
00
00
00
00
00
00
00
00
00
00
00
00
00
ENDCHAR
STARTCHAR C0005
ENCODING -1 5
SWIDTH 471 0
DWIDTH 8 0
BBX 8 17 0 0
BITMAP
FF
81
81
81
81
99
BD
BD
99
81
81
81
81
FF
00
00
00
ENDCHAR
STARTCHAR C0006
ENCODING -1 6
SWIDTH 471 0
DWIDTH 8 0
BBX 8 17 0 0
BITMAP
00
38
64
C2
CE
DA
DA
DA
CC
60
3C
00
00
00
00
00
00
ENDCHAR
STARTCHAR C0007
ENCODING -1 7
SWIDTH 471 0
DWIDTH 8 0
BBX 8 17 0 0
BITMAP
00
00
00
18
3C
3C
18
00
00
00
00
00
00
00
00
00
00
ENDCHAR
STARTCHAR C0008
ENCODING -1 8
SWIDTH 0 0
DWIDTH 0 0
BBX 0 17 0 0
BITMAP
00
00
00
00
00
00
00
00
00
00
00
00
00
00
00
00
00
ENDCHAR
STARTCHAR C0009
ENCODING -1 9
SWIDTH 0 0
DWIDTH 0 0
BBX 0 17 0 0
BITMAP
00
00
00
00
00
00
00
00
00
00
00
00
00
00
00
00
00
ENDCHAR
STARTCHAR C000A
ENCODING -1 10
SWIDTH 471 0
DWIDTH 8 0
BBX 8 17 0 0
BITMAP
00
38
38
38
38
38
38
38
38
00
38
38
38
00
00
00
00
ENDCHAR
STARTCHAR C000B
ENCODING -1 11
SWIDTH 647 0
DWIDTH 11 0
BBX 11 17 0 0
BITMAP
0E00
1F00
3180
3180
3180
1B00
1B00
1100
3180
2080
7FC0
7FC0
0000
0000
0000
0000
0000
ENDCHAR
STARTCHAR C000C
ENCODING -1 12
SWIDTH 0 0
DWIDTH 0 0
BBX 0 17 0 0
BITMAP
00
00
00
00
00
00
00
00
00
00
00
00
00
00
00
00
00
ENDCHAR
STARTCHAR C000D
ENCODING -1 13
SWIDTH 471 0
DWIDTH 8 0
BBX 8 17 0 0
BITMAP
00
00
00
00
00
00
00
00
00
00
00
00
00
00
00
00
00
ENDCHAR
STARTCHAR C000E
ENCODING -1 14
SWIDTH 471 0
DWIDTH 8 0
BBX 8 17 0 0
BITMAP
00
00
00
0C
FE
FE
30
FE
FE
60
00
00
00
00
00
00
00
ENDCHAR
STARTCHAR C000F
ENCODING -1 15
SWIDTH 471 0
DWIDTH 8 0
BBX 8 17 0 0
BITMAP
00
66
66
66
66
66
00
00
00
00
00
00
00
00
00
00
00
ENDCHAR
STARTCHAR C0010
ENCODING -1 16
SWIDTH 824 0
DWIDTH 14 0
BBX 14 17 0 0
BITMAP
0000
0008
0010
0020
0260
0360
7FE0
7FE0
0360
0260
0020
0010
0008
0000
0000
0000
0000
ENDCHAR
STARTCHAR C0011
ENCODING -1 17
SWIDTH 412 0
DWIDTH 7 0
BBX 7 17 0 0
BITMAP
00
00
30
30
30
30
30
30
00
30
30
00
00
00
00
00
00
ENDCHAR
STARTCHAR C0012
ENCODING -1 18
SWIDTH 471 0
DWIDTH 8 0
BBX 8 17 0 0
BITMAP
00
00
00
3C
7E
66
66
7E
3C
00
00
00
00
00
00
00
00
ENDCHAR
STARTCHAR C0013
ENCODING -1 19
SWIDTH 941 0
DWIDTH 16 0
BBX 16 17 0 0
BITMAP
0000
0000
0000
6000
6E00
DB00
0C00
0600
0300
1B00
0E00
0000
0000
0000
0000
0000
0000
ENDCHAR
STARTCHAR C0014
ENCODING -1 20
SWIDTH 941 0
DWIDTH 16 0
BBX 16 17 0 0
BITMAP
0FE0
1FF0
1830
1830
1830
1830
1830
1830
3838
5FF4
8FE2
F55E
2AA8
1FF0
0000
0000
0000
ENDCHAR
STARTCHAR C0015
ENCODING -1 21
SWIDTH 588 0
DWIDTH 10 0
BBX 10 17 0 0
BITMAP
0000
0000
3F80
3F80
0000
0000
0000
0000
0000
0000
0000
0000
0000
0000
0000
0000
0000
ENDCHAR
STARTCHAR C0016
ENCODING -1 22
SWIDTH 471 0
DWIDTH 8 0
BBX 8 17 0 0
BITMAP
00
44
AC
A8
58
10
30
68
54
D4
88
00
00
00
00
00
00
ENDCHAR
STARTCHAR C0017
ENCODING -1 23
SWIDTH 471 0
DWIDTH 8 0
BBX 8 17 0 0
BITMAP
00
00
C6
C6
6C
6C
38
38
10
00
00
00
00
00
00
00
00
ENDCHAR
STARTCHAR C0018
ENCODING -1 24
SWIDTH 471 0
DWIDTH 8 0
BBX 8 17 0 0
BITMAP
00
00
10
38
38
6C
6C
C6
C6
00
00
00
00
00
00
00
00
ENDCHAR
STARTCHAR C0019
ENCODING -1 25
SWIDTH 941 0
DWIDTH 16 0
BBX 16 17 0 0
BITMAP
0000
0000
F030
FC38
7FFC
3FFE
3FFF
3FFE
7FFC
FC38
F030
0000
0000
0000
0000
0000
0000
ENDCHAR
STARTCHAR C001A
ENCODING -1 26
SWIDTH 471 0
DWIDTH 8 0
BBX 8 17 0 0
BITMAP
00
C0
70
1C
FE
FE
00
FE
FE
00
00
00
00
00
00
00
00
ENDCHAR
STARTCHAR C001B
ENCODING -1 27
SWIDTH 471 0
DWIDTH 8 0
BBX 8 17 0 0
BITMAP
30
78
FC
B4
F8
7C
B4
FC
78
30
30
00
00
00
00
00
00
ENDCHAR
STARTCHAR C001C
ENCODING -1 28
SWIDTH 471 0
DWIDTH 8 0
BBX 8 17 0 0
BITMAP
00
30
68
68
30
30
6A
C4
C4
E6
78
00
00
00
00
00
00
ENDCHAR
STARTCHAR C001D
ENCODING -1 29
SWIDTH 941 0
DWIDTH 16 0
BBX 16 17 0 0
BITMAP
0000
03C0
0620
0620
0300
03C0
0660
0660
03C0
00C0
0460
0460
03C0
0000
0000
0000
0000
ENDCHAR
STARTCHAR C001E
ENCODING -1 30
SWIDTH 471 0
DWIDTH 8 0
BBX 8 17 0 0
BITMAP
00
38
38
38
38
38
38
38
38
00
38
38
38
00
00
00
00
ENDCHAR
STARTCHAR C001F
ENCODING -1 31
SWIDTH 941 0
DWIDTH 16 0
BBX 16 17 0 0
BITMAP
FFFC
FFFC
FFFC
FFFC
FFFC
FFFC
FFFC
FFFC
FFFC
FFFC
FFFC
FFFC
FFFC
0000
0000
0000
0000
ENDCHAR
STARTCHAR C0020
ENCODING -1 32
SWIDTH 412 0
DWIDTH 7 0
BBX 7 17 0 0
BITMAP
00
00
00
00
00
00
00
00
00
00
00
00
00
00
00
00
00
ENDCHAR
STARTCHAR C0021
ENCODING -1 33
SWIDTH 588 0
DWIDTH 10 0
BBX 10 17 0 0
BITMAP
0000
1000
3800
7C00
EE00
6C00
6C00
6C00
6C00
6C00
6C00
6C00
4400
0000
0000
0000
0000
ENDCHAR
STARTCHAR C0022
ENCODING -1 34
SWIDTH 941 0
DWIDTH 16 0
BBX 16 17 0 0
BITMAP
0700
1900
2200
4FFC
C804
8FF8
9840
EF80
8880
CF00
7E00
0000
0000
0000
0000
0000
0000
ENDCHAR
STARTCHAR C0023
ENCODING -1 35
SWIDTH 471 0
DWIDTH 8 0
BBX 8 17 0 0
BITMAP
00
09
1B
12
7F
24
FE
48
D8
90
00
00
00
00
00
00
00
ENDCHAR
STARTCHAR C0024
ENCODING -1 36
SWIDTH 588 0
DWIDTH 10 0
BBX 10 17 0 0
BITMAP
0000
1400
2200
4100
C180
C180
C180
C180
C180
C180
4100
2200
1400
0000
0000
0000
0000
ENDCHAR
STARTCHAR C0025
ENCODING -1 37
SWIDTH 529 0
DWIDTH 9 0
BBX 9 17 0 0
BITMAP
0000
0600
0C00
1800
3C00
7600
E600
F600
3C00
1800
0C00
0000
0000
0000
0000
0000
0000
ENDCHAR
STARTCHAR C0026
ENCODING -1 38
SWIDTH 59 0
DWIDTH 1 0
BBX 11 17 0 0
BITMAP
7FC0
8060
8060
8060
8060
8060
8060
8060
8060
8060
8060
FFE0
7FC0
0000
0000
0000
0000
ENDCHAR
STARTCHAR C0027
ENCODING -1 39
SWIDTH 353 0
DWIDTH 6 0
BBX 6 17 0 0
BITMAP
30
30
30
20
00
00
00
00
00
00
00
00
00
00
00
00
00
ENDCHAR
STARTCHAR C0028
ENCODING -1 40
SWIDTH 353 0
DWIDTH 6 0
BBX 6 17 0 0
BITMAP
00
08
10
20
60
60
60
60
60
60
20
10
08
00
00
00
00
ENDCHAR
STARTCHAR C0029
ENCODING -1 41
SWIDTH 353 0
DWIDTH 6 0
BBX 6 17 0 0
BITMAP
00
40
20
10
18
18
18
18
18
18
10
20
40
00
00
00
00
ENDCHAR
STARTCHAR C002A
ENCODING -1 42
SWIDTH 471 0
DWIDTH 8 0
BBX 8 17 0 0
BITMAP
00
00
00
18
5A
7E
3C
7E
5A
18
00
00
00
00
00
00
00
ENDCHAR
STARTCHAR C002B
ENCODING -1 43
SWIDTH 471 0
DWIDTH 8 0
BBX 8 17 0 0
BITMAP
00
00
00
18
18
7E
7E
18
18
00
00
00
00
00
00
00
00
ENDCHAR
STARTCHAR C002C
ENCODING -1 44
SWIDTH 471 0
DWIDTH 8 0
BBX 8 17 0 0
BITMAP
00
00
00
00
00
00
00
00
00
1C
1C
0C
18
30
00
00
00
ENDCHAR
STARTCHAR C002D
ENCODING -1 45
SWIDTH 471 0
DWIDTH 8 0
BBX 8 17 0 0
BITMAP
00
00
00
00
00
7E
7E
00
00
00
00
00
00
00
00
00
00
ENDCHAR
STARTCHAR C002E
ENCODING -1 46
SWIDTH 353 0
DWIDTH 6 0
BBX 6 17 0 0
BITMAP
00
00
00
00
00
00
00
00
70
70
70
00
00
00
00
00
00
ENDCHAR
STARTCHAR C002F
ENCODING -1 47
SWIDTH 471 0
DWIDTH 8 0
BBX 8 17 0 0
BITMAP
00
06
06
0C
0C
18
18
30
30
60
60
C0
C0
00
00
00
00
ENDCHAR
STARTCHAR C0030
ENCODING -1 48
SWIDTH 471 0
DWIDTH 8 0
BBX 8 17 0 0
BITMAP
00
00
00
38
7C
E6
C6
C6
C6
CE
7C
38
00
00
00
00
00
ENDCHAR
STARTCHAR C0031
ENCODING -1 49
SWIDTH 471 0
DWIDTH 8 0
BBX 8 17 0 0
BITMAP
00
00
00
08
18
38
18
18
18
18
3C
3C
00
00
00
00
00
ENDCHAR
STARTCHAR C0032
ENCODING -1 50
SWIDTH 471 0
DWIDTH 8 0
BBX 8 17 0 0
BITMAP
00
00
00
78
EC
4E
0E
1C
38
72
FE
CE
00
00
00
00
00
ENDCHAR
STARTCHAR C0033
ENCODING -1 51
SWIDTH 471 0
DWIDTH 8 0
BBX 8 17 0 0
BITMAP
00
00
00
7C
EE
46
0C
1C
C6
C6
7C
38
00
00
00
00
00
ENDCHAR
STARTCHAR C0034
ENCODING -1 52
SWIDTH 471 0
DWIDTH 8 0
BBX 8 17 0 0
BITMAP
00
00
00
0C
1C
38
72
E6
C6
FE
06
06
00
00
00
00
00
ENDCHAR
STARTCHAR C0035
ENCODING -1 53
SWIDTH 471 0
DWIDTH 8 0
BBX 8 17 0 0
BITMAP
00
00
00
FC
FC
C0
F8
7C
06
C6
FC
78
00
00
00
00
00
ENDCHAR
STARTCHAR C0036
ENCODING -1 54
SWIDTH 471 0
DWIDTH 8 0
BBX 8 17 0 0
BITMAP
00
00
00
38
6C
C0
DC
FE
E2
C6
7C
38
00
00
00
00
00
ENDCHAR
STARTCHAR C0037
ENCODING -1 55
SWIDTH 471 0
DWIDTH 8 0
BBX 8 17 0 0
BITMAP
00
00
00
FE
FE
0C
1C
18
38
30
70
60
00
00
00
00
00
ENDCHAR
STARTCHAR C0038
ENCODING -1 56
SWIDTH 471 0
DWIDTH 8 0
BBX 8 17 0 0
BITMAP
00
00
00
7C
E6
C6
4C
38
64
C6
CE
7C
00
00
00
00
00
ENDCHAR
STARTCHAR C0039
ENCODING -1 57
SWIDTH 471 0
DWIDTH 8 0
BBX 8 17 0 0
BITMAP
00
00
00
38
6C
C6
C6
7E
36
06
6C
38
00
00
00
00
00
ENDCHAR
STARTCHAR C003A
ENCODING -1 58
SWIDTH 471 0
DWIDTH 8 0
BBX 8 17 0 0
BITMAP
00
00
00
38
38
38
00
00
38
38
38
00
00
00
00
00
00
ENDCHAR
STARTCHAR C003B
ENCODING -1 59
SWIDTH 471 0
DWIDTH 8 0
BBX 8 17 0 0
BITMAP
00
00
00
00
38
38
00
00
00
38
38
08
18
30
00
00
00
ENDCHAR
STARTCHAR C003C
ENCODING -1 60
SWIDTH 471 0
DWIDTH 8 0
BBX 8 17 0 0
BITMAP
00
00
00
0C
18
30
60
C0
60
30
18
0C
00
00
00
00
00
ENDCHAR
STARTCHAR C003D
ENCODING -1 61
SWIDTH 471 0
DWIDTH 8 0
BBX 8 17 0 0
BITMAP
00
00
00
00
7E
7E
00
00
7E
7E
00
00
00
00
00
00
00
ENDCHAR
STARTCHAR C003E
ENCODING -1 62
SWIDTH 471 0
DWIDTH 8 0
BBX 8 17 0 0
BITMAP
00
00
00
C0
60
30
18
0C
18
30
60
C0
00
00
00
00
00
ENDCHAR
STARTCHAR C003F
ENCODING -1 63
SWIDTH 471 0
DWIDTH 8 0
BBX 8 17 0 0
BITMAP
00
00
00
00
00
00
08
FC
FE
03
FE
FC
08
00
00
00
00
ENDCHAR
STARTCHAR C0040
ENCODING -1 64
SWIDTH 941 0
DWIDTH 16 0
BBX 16 17 0 0
BITMAP
07E0
1810
2EE8
7114
6C6A
CC66
CD66
C102
D832
CFE2
C7C6
600C
3FF8
0FE0
0000
0000
0000
ENDCHAR
STARTCHAR C0041
ENCODING -1 65
SWIDTH 941 0
DWIDTH 16 0
BBX 16 17 0 0
BITMAP
FFFF
0000
0000
0000
FFFF
0000
0000
0000
FFFF
0000
0000
0000
FFFF
0000
0000
0000
FFFF
ENDCHAR
STARTCHAR C0042
ENCODING -1 66
SWIDTH 0 0
DWIDTH 0 0
BBX 0 17 0 0
BITMAP
00
00
00
00
00
00
00
00
00
00
00
00
00
00
00
00
00
ENDCHAR
STARTCHAR C0043
ENCODING -1 67
SWIDTH 647 0
DWIDTH 11 0
BBX 11 17 0 0
BITMAP
0000
0E00
1F00
1F00
3C80
3C80
3980
3980
3380
1780
0F00
0F00
1E00
3E00
3C00
7C00
7C00
ENDCHAR
STARTCHAR C0044
ENCODING -1 68
SWIDTH 588 0
DWIDTH 10 0
BBX 12 17 0 0
BITMAP
F780
EFC0
EE60
DE70
DA70
D2F0
C2F0
63E0
37C0
1F80
0100
1900
3D00
3D00
3900
3300
1E00
ENDCHAR
STARTCHAR C0045
ENCODING -1 69
SWIDTH 0 0
DWIDTH 0 0
BBX 0 17 0 0
BITMAP
00
00
00
00
00
00
00
00
00
00
00
00
00
00
00
00
00
ENDCHAR
STARTCHAR C0046
ENCODING -1 70
SWIDTH 941 0
DWIDTH 16 0
BBX 16 17 0 0
BITMAP
8000
C000
E000
7000
3800
1C00
0C00
0C00
0C00
0800
1000
0000
0000
0000
0000
0000
0000
ENDCHAR
STARTCHAR C0047
ENCODING -1 71
SWIDTH 941 0
DWIDTH 16 0
BBX 16 17 0 0
BITMAP
0000
0000
0000
0000
0000
1000
0800
0C00
0C00
1C00
3800
7000
E000
C000
8000
0000
0000
ENDCHAR
STARTCHAR C0048
ENCODING -1 72
SWIDTH 0 0
DWIDTH 0 0
BBX 0 17 0 0
BITMAP
00
00
00
00
00
00
00
00
00
00
00
00
00
00
00
00
00
ENDCHAR
STARTCHAR C0049
ENCODING -1 73
SWIDTH 294 0
DWIDTH 5 0
BBX 5 17 0 0
BITMAP
C0
C0
C0
00
00
00
00
00
00
00
00
00
00
00
00
00
00
ENDCHAR
STARTCHAR C004A
ENCODING -1 74
SWIDTH 412 0
DWIDTH 7 0
BBX 7 17 0 0
BITMAP
00
00
C0
F0
FC
FC
3C
0C
00
00
00
00
00
00
00
00
00
ENDCHAR
STARTCHAR C004B
ENCODING -1 75
SWIDTH 647 0
DWIDTH 11 0
BBX 11 17 0 0
BITMAP
0000
0000
0C00
3C00
FC00
FC00
F000
C000
0000
0000
0000
0000
0000
0000
0000
0000
0000
ENDCHAR
STARTCHAR C004C
ENCODING -1 76
SWIDTH 0 0
DWIDTH 0 0
BBX 0 17 0 0
BITMAP
00
00
00
00
00
00
00
00
00
00
00
00
00
00
00
00
00
ENDCHAR
STARTCHAR C004D
ENCODING -1 77
SWIDTH 941 0
DWIDTH 16 0
BBX 16 17 0 0
BITMAP
8000
8000
8000
8000
F000
D800
9800
B000
C000
8000
0000
0000
0000
0000
0000
0000
0000
ENDCHAR
STARTCHAR C004E
ENCODING -1 78
SWIDTH 941 0
DWIDTH 16 0
BBX 16 17 0 0
BITMAP
0000
8000
8000
B000
F000
D000
9000
B000
F000
D000
1000
1000
0000
0000
0000
0000
0000
ENDCHAR
STARTCHAR C004F
ENCODING -1 79
SWIDTH 941 0
DWIDTH 16 0
BBX 16 17 0 0
BITMAP
0000
0000
1000
5800
F800
D000
5000
5800
F800
D000
4000
0000
0000
0000
0000
0000
0000
ENDCHAR
STARTCHAR C0050
ENCODING -1 80
SWIDTH 941 0
DWIDTH 16 0
BBX 16 17 0 0
BITMAP
0000
0000
0000
0000
CC00
7800
3000
7800
CC00
0000
0000
0000
0000
0000
0000
0000
0000
ENDCHAR
STARTCHAR C0051
ENCODING -1 81
SWIDTH 0 0
DWIDTH 0 0
BBX 0 17 0 0
BITMAP
00
00
00
00
00
00
00
00
00
00
00
00
00
00
00
00
00
ENDCHAR
STARTCHAR C0052
ENCODING -1 82
SWIDTH 0 0
DWIDTH 0 0
BBX 0 17 0 0
BITMAP
00
00
00
00
00
00
00
00
00
00
00
00
00
00
00
00
00
ENDCHAR
STARTCHAR C0053
ENCODING -1 83
SWIDTH 471 0
DWIDTH 8 0
BBX 8 17 0 0
BITMAP
80
80
80
80
80
80
80
80
80
80
80
80
80
80
80
00
00
ENDCHAR
STARTCHAR C0054
ENCODING -1 84
SWIDTH 941 0
DWIDTH 16 0
BBX 16 17 0 0
BITMAP
FFFF
0000
0800
0800
FFFF
0800
0800
0800
FFFF
0000
0000
0000
FFFF
0000
0000
0000
FFFF
ENDCHAR
STARTCHAR C0055
ENCODING -1 85
SWIDTH 0 0
DWIDTH 0 0
BBX 0 17 0 0
BITMAP
00
00
00
00
00
00
00
00
00
00
00
00
00
00
00
00
00
ENDCHAR
STARTCHAR C0056
ENCODING -1 86
SWIDTH 941 0
DWIDTH 16 0
BBX 16 17 0 0
BITMAP
3E00
7F30
E7B0
F380
F380
6380
03B0
0330
0700
0600
0C00
1800
3000
4000
0000
0000
0000
ENDCHAR
STARTCHAR C0057
ENCODING -1 87
SWIDTH 941 0
DWIDTH 16 0
BBX 16 17 0 0
BITMAP
0000
0000
0000
0000
7C00
EE00
E700
7700
3E00
0000
0000
0000
0000
0000
0000
0000
0000
ENDCHAR
STARTCHAR C0058
ENCODING -1 88
SWIDTH 529 0
DWIDTH 9 0
BBX 9 17 0 0
BITMAP
0000
F700
6600
3400
3C00
1800
1800
3C00
2C00
6600
EF00
0000
0000
0000
0000
0000
0000
ENDCHAR
STARTCHAR C0059
ENCODING -1 89
SWIDTH 647 0
DWIDTH 11 0
BBX 11 17 0 0
BITMAP
0000
F3C0
6180
3300
3300
1E00
1E00
0C00
0C00
0C00
1E00
0000
0000
0000
0000
0000
0000
ENDCHAR
STARTCHAR C005A
ENCODING -1 90
SWIDTH 647 0
DWIDTH 11 0
BBX 11 17 0 0
BITMAP
0000
7F80
7F80
4300
0600
0C00
1800
3000
6040
FFC0
FF80
0000
0000
0000
0000
0000
0000
ENDCHAR
STARTCHAR C005B
ENCODING -1 91
SWIDTH 235 0
DWIDTH 4 0
BBX 4 17 0 0
BITMAP
F0
C0
C0
C0
C0
C0
C0
C0
C0
C0
C0
C0
F0
00
00
00
00
ENDCHAR
STARTCHAR C005C
ENCODING -1 92
SWIDTH 471 0
DWIDTH 8 0
BBX 8 17 0 0
BITMAP
00
C0
60
60
30
30
18
18
0C
0C
06
06
03
00
00
00
00
ENDCHAR
STARTCHAR C005D
ENCODING -1 93
SWIDTH 294 0
DWIDTH 5 0
BBX 5 17 0 0
BITMAP
F0
30
30
30
30
30
30
30
30
30
30
30
F0
00
00
00
00
ENDCHAR
STARTCHAR C005E
ENCODING -1 94
SWIDTH 471 0
DWIDTH 8 0
BBX 8 17 0 0
BITMAP
00
18
3C
7E
5A
18
18
18
18
00
00
00
00
00
00
00
00
ENDCHAR
STARTCHAR C005F
ENCODING -1 95
SWIDTH 471 0
DWIDTH 8 0
BBX 8 17 0 0
BITMAP
00
00
00
30
60
FF
FF
60
30
00
00
00
00
00
00
00
00
ENDCHAR
STARTCHAR C0060
ENCODING -1 96
SWIDTH 0 0
DWIDTH 0 0
BBX 0 17 0 0
BITMAP
00
00
00
00
00
00
00
00
00
00
00
00
00
00
00
00
00
ENDCHAR
STARTCHAR C0061
ENCODING -1 97
SWIDTH 353 0
DWIDTH 6 0
BBX 6 17 0 0
BITMAP
00
00
00
00
30
58
18
78
98
98
7C
00
00
00
00
00
00
ENDCHAR
STARTCHAR C0062
ENCODING -1 98
SWIDTH 471 0
DWIDTH 8 0
BBX 8 17 0 0
BITMAP
60
E0
60
60
7C
66
66
66
66
64
F8
00
00
00
00
00
00
ENDCHAR
STARTCHAR C0063
ENCODING -1 99
SWIDTH 412 0
DWIDTH 7 0
BBX 7 17 0 0
BITMAP
00
00
00
00
38
64
C0
C0
C0
64
38
00
00
00
00
00
00
ENDCHAR
STARTCHAR C0064
ENCODING -1 100
SWIDTH 412 0
DWIDTH 7 0
BBX 7 17 0 0
BITMAP
0C
1C
0C
0C
7C
CC
CC
CC
CC
4C
3E
00
00
00
00
00
00
ENDCHAR
STARTCHAR C0065
ENCODING -1 101
SWIDTH 412 0
DWIDTH 7 0
BBX 7 17 0 0
BITMAP
00
00
00
00
38
44
FC
C0
C0
64
38
00
00
00
00
00
00
ENDCHAR
STARTCHAR C0066
ENCODING -1 102
SWIDTH 294 0
DWIDTH 5 0
BBX 5 17 0 0
BITMAP
30
68
60
60
F0
60
60
60
60
60
F0
00
00
00
00
00
00
ENDCHAR
STARTCHAR C0067
ENCODING -1 103
SWIDTH 471 0
DWIDTH 8 0
BBX 8 17 0 0
BITMAP
00
00
00
00
7A
CC
CC
78
C0
FC
7E
C2
E2
7C
00
00
00
ENDCHAR
STARTCHAR C0068
ENCODING -1 104
SWIDTH 471 0
DWIDTH 8 0
BBX 8 17 0 0
BITMAP
60
E0
60
60
6C
76
62
62
62
62
F7
00
00
00
00
00
00
ENDCHAR
STARTCHAR C0069
ENCODING -1 105
SWIDTH 353 0
DWIDTH 6 0
BBX 6 17 0 0
BITMAP
00
30
30
00
30
70
30
30
30
30
78
00
00
00
00
00
00
ENDCHAR
STARTCHAR C006A
ENCODING -1 106
SWIDTH 353 0
DWIDTH 6 0
BBX 6 17 0 0
BITMAP
00
18
18
00
18
38
18
18
18
18
18
D8
D8
70
00
00
00
ENDCHAR
STARTCHAR C006B
ENCODING -1 107
SWIDTH 471 0
DWIDTH 8 0
BBX 8 17 0 0
BITMAP
60
E0
60
60
66
6C
78
78
6C
66
F3
00
00
00
00
00
00
ENDCHAR
STARTCHAR C006C
ENCODING -1 108
SWIDTH 235 0
DWIDTH 4 0
BBX 4 17 0 0
BITMAP
60
E0
60
60
60
60
60
60
60
60
F0
00
00
00
00
00
00
ENDCHAR
STARTCHAR C006D
ENCODING -1 109
SWIDTH 706 0
DWIDTH 12 0
BBX 12 17 0 0
BITMAP
0000
0000
0000
0000
DDC0
6660
6660
6660
6660
6660
F770
0000
0000
0000
0000
0000
0000
ENDCHAR
STARTCHAR C006E
ENCODING -1 110
SWIDTH 471 0
DWIDTH 8 0
BBX 8 17 0 0
BITMAP
00
00
00
00
DC
66
66
66
66
66
F7
00
00
00
00
00
00
ENDCHAR
STARTCHAR C006F
ENCODING -1 111
SWIDTH 412 0
DWIDTH 7 0
BBX 7 17 0 0
BITMAP
00
00
00
00
38
64
C2
C2
C2
64
38
00
00
00
00
00
00
ENDCHAR
STARTCHAR C0070
ENCODING -1 112
SWIDTH 471 0
DWIDTH 8 0
BBX 8 17 0 0
BITMAP
00
00
00
00
58
E4
66
66
66
66
7C
60
60
F0
00
00
00
ENDCHAR
STARTCHAR C0071
ENCODING -1 113
SWIDTH 471 0
DWIDTH 8 0
BBX 8 17 0 0
BITMAP
00
00
00
00
34
4E
CC
CC
CC
CC
7C
0C
0C
1E
00
00
00
ENDCHAR
STARTCHAR C0072
ENCODING -1 114
SWIDTH 412 0
DWIDTH 7 0
BBX 7 17 0 0
BITMAP
00
00
00
00
5C
EC
60
60
60
60
F0
00
00
00
00
00
00
ENDCHAR
STARTCHAR C0073
ENCODING -1 115
SWIDTH 353 0
DWIDTH 6 0
BBX 6 17 0 0
BITMAP
00
00
00
00
70
D8
60
30
18
D8
70
00
00
00
00
00
00
ENDCHAR
STARTCHAR C0074
ENCODING -1 116
SWIDTH 294 0
DWIDTH 5 0
BBX 5 17 0 0
BITMAP
00
00
20
60
F0
60
60
60
60
68
30
00
00
00
00
00
00
ENDCHAR
STARTCHAR C0075
ENCODING -1 117
SWIDTH 471 0
DWIDTH 8 0
BBX 8 17 0 0
BITMAP
00
00
00
00
EF
66
66
66
66
66
3B
00
00
00
00
00
00
ENDCHAR
STARTCHAR C0076
ENCODING -1 118
SWIDTH 529 0
DWIDTH 9 0
BBX 9 17 0 0
BITMAP
0000
0000
0000
0000
F780
6300
3600
3600
1C00
1C00
0800
0000
0000
0000
0000
0000
0000
ENDCHAR
STARTCHAR C0077
ENCODING -1 119
SWIDTH 765 0
DWIDTH 13 0
BBX 13 17 0 0
BITMAP
0000
0000
0000
0000
F278
6230
3760
3760
1DC0
1DC0
0880
0000
0000
0000
0000
0000
0000
ENDCHAR
STARTCHAR C0078
ENCODING -1 120
SWIDTH 471 0
DWIDTH 8 0
BBX 8 17 0 0
BITMAP
00
00
00
00
F7
66
3C
18
3C
66
EF
00
00
00
00
00
00
ENDCHAR
STARTCHAR C0079
ENCODING -1 121
SWIDTH 529 0
DWIDTH 9 0
BBX 9 17 0 0
BITMAP
0000
0000
0000
0000
F780
6300
3600
3600
1C00
1C00
0800
0800
D800
7000
0000
0000
0000
ENDCHAR
STARTCHAR C007A
ENCODING -1 122
SWIDTH 471 0
DWIDTH 8 0
BBX 8 17 0 0
BITMAP
00
00
00
00
3F
46
0C
18
30
61
FE
00
00
00
00
00
00
ENDCHAR
STARTCHAR C007B
ENCODING -1 123
SWIDTH 471 0
DWIDTH 8 0
BBX 8 17 0 0
BITMAP
0E
18
18
18
18
70
70
18
18
18
18
0E
00
00
00
00
00
ENDCHAR
STARTCHAR C007C
ENCODING -1 124
SWIDTH 118 0
DWIDTH 2 0
BBX 2 17 0 0
BITMAP
C0
C0
40
80
00
00
00
00
00
00
00
00
00
00
00
00
00
ENDCHAR
STARTCHAR C007D
ENCODING -1 125
SWIDTH 471 0
DWIDTH 8 0
BBX 8 17 0 0
BITMAP
70
18
18
18
18
0E
0E
18
18
18
18
70
00
00
00
00
00
ENDCHAR
STARTCHAR C007E
ENCODING -1 126
SWIDTH 471 0
DWIDTH 8 0
BBX 8 17 0 0
BITMAP
00
3C
66
66
06
0C
18
18
00
18
18
00
00
00
00
00
00
ENDCHAR
STARTCHAR C007F
ENCODING -1 127
SWIDTH 941 0
DWIDTH 16 0
BBX 16 17 0 0
BITMAP
0003
0007
000F
001F
00BE
01FC
13F8
37F0
3EE0
7CC0
7880
D000
8000
0000
0000
0000
0000
ENDCHAR
ENDFONT
